/* XPM */
static char *_54e3209a144495d8642c25aba00dab099bsFmW1SQOkoBaY[] = {
/* columns rows colors chars-per-pixel */
"50 50 155 2 ",
"   c None",
".  c #351E01",
"X  c #3C2400",
"o  c #4E3502",
"O  c #513601",
"+  c #553A01",
"@  c #5F4201",
"#  c #624500",
"$  c #664802",
"%  c #6D4D00",
"&  c #725302",
"*  c #785603",
"=  c #7C5B02",
"-  c #846203",
";  c #8C6C07",
":  c #917006",
">  c #9F7901",
",  c #9B790B",
"<  c #977918",
"1  c #A57E00",
"2  c #AA8301",
"3  c #A4810B",
"4  c #B69005",
"5  c #BE9602",
"6  c #BB9309",
"7  c #AE8F16",
"8  c #B18F1B",
"9  c #AA9127",
"0  c #BB9E20",
"q  c #B2992D",
"w  c #C49C04",
"e  c #C19E10",
"r  c #CBA202",
"t  c #CAA30B",
"y  c #D3A503",
"u  c #DBA704",
"i  c #D5AF06",
"p  c #DDAB03",
"a  c #D8A508",
"s  c #D4A90A",
"d  c #DCB105",
"f  c #DDB20B",
"g  c #C2A217",
"h  c #C1A01A",
"j  c #D5AF10",
"k  c #D5B21B",
"l  c #DBB61A",
"z  c #E0AE03",
"x  c #E0AF0A",
"c  c #E5B401",
"v  c #E7B904",
"b  c #ECBB01",
"n  c #F0BF00",
"m  c #E3B716",
"M  c #E3BD11",
"N  c #E8BF10",
"B  c #E5BC1A",
"V  c #D8BA25",
"C  c #D1BA3F",
"Z  c #EFC000",
"A  c #EEC30C",
"S  c #F3C402",
"D  c #F6C902",
"F  c #F9CB04",
"G  c #F2C309",
"H  c #F6CB0C",
"J  c #FACD0A",
"K  c #FCD10E",
"L  c #E5C213",
"P  c #ECC515",
"I  c #EAC817",
"U  c #EAC51C",
"Y  c #EBC91B",
"T  c #F3C611",
"R  c #F2CB14",
"E  c #F4CB1A",
"W  c #FCD214",
"Q  c #FCD51C",
"!  c #FCDA1D",
"~  c #DCC023",
"^  c #DCC33A",
"/  c #E0C120",
"(  c #EDC624",
")  c #EECD20",
"_  c #E7C728",
"`  c #EBC42B",
"'  c #F7CE27",
"]  c #FBCF21",
"[  c #F3CB2B",
"{  c #F6D220",
"}  c #FCD622",
"|  c #FDDA22",
" . c #F6D52D",
".. c #FDDB2B",
"X. c #E9C332",
"o. c #EFD03A",
"O. c #F4D234",
"+. c #FAD532",
"@. c #F6DD35",
"#. c #FCDD33",
"$. c #FBD33B",
"%. c #FBDE3A",
"&. c #FCE126",
"*. c #FBE52A",
"=. c #FDE135",
"-. c #FDE23C",
";. c #FCE93B",
":. c #DCC540",
">. c #DCCA43",
",. c #DDCB54",
"<. c #EBCB4A",
"1. c #EDD743",
"2. c #F3DE45",
"3. c #FCDE41",
"4. c #F4D54C",
"5. c #F4DA49",
"6. c #E9D652",
"7. c #E3D35E",
"8. c #E8D85B",
"9. c #F6D550",
"0. c #F9D851",
"q. c #F3D859",
"w. c #F8DD5F",
"e. c #FDE444",
"r. c #FDEB45",
"t. c #FDE64A",
"y. c #FEEA4C",
"u. c #FDEA52",
"i. c #F5E45F",
"p. c #F9E05E",
"a. c #FDED5C",
"s. c #E6D762",
"d. c #E5DA62",
"f. c #E6DC6B",
"g. c #F9DE67",
"h. c #EEDA74",
"j. c #EEE063",
"k. c #FEEE64",
"l. c #FCED69",
"z. c #FEF166",
"x. c #FDF06D",
"c. c #F9EC71",
"v. c #FAE578",
"b. c #FCED7C",
"n. c #FDF275",
"m. c #FCF37C",
"M. c #FCE780",
"N. c #FBE982",
"B. c #FDEE8D",
"V. c #FDF680",
"C. c #FEFA82",
"Z. c #FAEB93",
"A. c #FDF49A",
"S. c #FCF5A4",
"D. c #FDF2AC",
/* pixels */
"                                                                                                    ",
"                                                                                                    ",
"                                                                                                    ",
"                                                                                                    ",
"                                                                                                    ",
"                                                                                                    ",
"                                                                                                    ",
"                                                                                                    ",
"                                                                                                    ",
"                                                                                                    ",
"                                                                                                    ",
"                                        y.a.l.V.h.X.                                                ",
"                                    -.r.y.y.u.u.k.b.9.G A                                           ",
"                                  -.-.e.r.y.y.u.u.a.S.0.S S                                         ",
"                                ..=.@.0 q C :.^ 2.y.y.A.$.D S                                       ",
"                              ..&.V < f.C.V.C.V.,.1.y.y.D.+.J D                                     ",
"                              } / 9 d.m.s.7.8.m.m.j.2.y.b.v.] H                                     ",
"                            } ! 3 >.a.z.7 7 V c.m.m.6.t.y.B.$.' E                                   ",
"                            Q j g *.-.u.( ' ;.l.n.m.m.2.e.l.g.[ R                                   ",
"                          ! ! 6 } | ..e./ ) ;.a.x.n.n.i.e.u.N.[ P L                                 ",
"                          } ! t ! ! ! -.B Y ;.u.a.k.l.l.%.e.b.B c d                                 ",
"                          ..E M } ! ..=.B Y *.t.u.a.k.k.%.%.k.l r r                                 ",
"                          ..Q R } | ..-.M I *.-.t.u.u.a.%.=.t.k w 5                                 ",
"                          }  .W Q ! | #.x I *.-.e.e.t.u.%.=.#.w 2 1                                 ",
"                          Q %.K F J W ..f L &.e.e.e.e.t.%.-...1 = *                                 ",
"                          J 3.W D D F Q s L &.%.e.3.e.e.%.%. .= # @                                 ",
"                          H $.+.n S D J s L &.! ..%.%.3.#.e._ # O O                                 ",
"                          D E p.c b b S r L | F K Q ..#.#.%.e X . .                                 ",
"                          D S M.c z c n y L ! D F J W ! .. ., + O o                                 ",
"                            S v.( z z c r L ! S S F F K } ( & # # #                                 ",
"                            S [ Z.x u z l I &.b S S F K K 0 @ $ $                                   ",
"                              n 9.9.z a <.o.O.c b Z F K A = % & *                                   ",
"                              S G g.4.u y u z z v S F J 3 % & &                                     ",
"                                S G O.4.` m m N H F F i + & & *                                     ",
"                                b Z n T  . .E H D D D & & & *                                       ",
"                                  f b D n S D D D r $ = -                                           ",
"                                      d c v c i 4 ; : ,                                             ",
"                                                                                                    ",
"                                                                                                    ",
"                                                                                                    ",
"                                                                                                    ",
"                                                                                                    ",
"                                                                                                    ",
"                                                                                                    ",
"                                                                                                    ",
"                                                                                                    ",
"                                                                                                    ",
"                                                                                                    ",
"                                                                                                    ",
"                                                                                                    "
};
