/* XPM */
static char *_168bef028a04ceead7a53a419d7b1a5YD91E9neArNBBn9w[] = {
/* columns rows colors chars-per-pixel */
"50 50 154 2 ",
"   c #374406",
".  c #3A4607",
"X  c #3D4907",
"o  c #36460A",
"O  c #3A4609",
"+  c #374A09",
"@  c #3C4C0B",
"#  c #3E510D",
"$  c #3E4D11",
"%  c #3F5010",
"&  c #404907",
"*  c #414E0C",
"=  c #43530E",
"-  c #49560E",
";  c #46590F",
":  c #4B5A0E",
">  c #505E0F",
",  c #414E12",
"<  c #444F1A",
"1  c #465114",
"2  c #455314",
"3  c #445215",
"4  c #465215",
"5  c #455117",
"6  c #475615",
"7  c #475516",
"8  c #445312",
"9  c #485711",
"0  c #4A5711",
"q  c #485512",
"w  c #4A5712",
"e  c #4A5713",
"r  c #495713",
"t  c #4A5614",
"y  c #4A5714",
"u  c #4A5615",
"i  c #485716",
"p  c #495613",
"a  c #475911",
"s  c #485811",
"d  c #485911",
"f  c #495911",
"g  c #4A5911",
"h  c #495A11",
"j  c #485B11",
"k  c #4B5A10",
"l  c #4A5B11",
"z  c #4A5912",
"x  c #4A5813",
"c  c #4B5813",
"v  c #4B5913",
"b  c #485A13",
"n  c #4A5A13",
"m  c #4B5A13",
"M  c #4C5911",
"N  c #4C5A10",
"B  c #4C5B13",
"V  c #4A5C11",
"C  c #4A5C12",
"Z  c #4C5D12",
"A  c #4D5D13",
"S  c #4D5E12",
"D  c #4D5F12",
"F  c #4D5F13",
"G  c #4F5E13",
"H  c #4E5F13",
"J  c #495914",
"K  c #4B5814",
"L  c #4A5B14",
"P  c #4B5A15",
"I  c #4B5916",
"U  c #4C5915",
"Y  c #4C5A14",
"T  c #4C5B16",
"R  c #4C5A17",
"E  c #4C5B17",
"W  c #4D5C14",
"Q  c #4C5C15",
"!  c #4D5C15",
"~  c #4E5D15",
"^  c #4C5E14",
"/  c #4F5E14",
"(  c #4E5E15",
")  c #4F5E15",
"_  c #4F5D17",
"`  c #4D5F17",
"'  c #4B5B13",
"]  c #455218",
"[  c #465219",
"{  c #485518",
"}  c #495518",
"|  c #4B5619",
" . c #49561A",
".. c #4B5919",
"X. c #4C5918",
"o. c #4D5B18",
"O. c #4E5B18",
"+. c #4C591A",
"@. c #4F5D1A",
"#. c #4D5B19",
"$. c #515E12",
"%. c #505F15",
"&. c #505F16",
"*. c #505E14",
"=. c #505D18",
"-. c #515E1A",
";. c #4D600F",
":. c #52600F",
">. c #4E6014",
",. c #506113",
"<. c #516113",
"1. c #506213",
"2. c #526313",
"3. c #546313",
"4. c #506014",
"5. c #516014",
"6. c #516115",
"7. c #526215",
"8. c #516017",
"9. c #526117",
"0. c #516216",
"q. c #546415",
"w. c #546515",
"e. c #566614",
"r. c #566615",
"t. c #536314",
"y. c #586613",
"u. c #566815",
"i. c #596A16",
"p. c #53611A",
"a. c #53621A",
"s. c #546219",
"d. c #566518",
"f. c #556618",
"g. c #54631A",
"h. c #58671C",
"j. c #576818",
"k. c #576919",
"l. c #596B18",
"z. c #58681A",
"x. c #5B6C1A",
"c. c #5E711C",
"v. c #60721C",
"b. c #62741D",
"n. c #687A1F",
"m. c #4C5820",
"M. c #535F21",
"N. c #546020",
"B. c #5D6B21",
"V. c #647521",
"C. c #677A20",
"Z. c #6D7F23",
"A. c #6A7C21",
"S. c #718528",
/* pixels */
"# # # # @ @ 8 @ O @ L 8 G V * * - X   * # 8 a # # @ * $ , X @ 7 ` e j V ; # , = X @ * @ @ 8 # # ; @ ",
"= j 8.= = a v e * # 7 L >.>.= = - e : 3.V = 8 # O @ * 8 , K p.j 4.= @ = = # 8 j , , ' $ 5 e >.i 8 +.",
"j G &.K &.q.v 8 @ 8 8 8 O @ @ 8 - * - = @ # @ * @ & X * ` p.` = 8 O - 4.j $.4.G ` @.a.[ u 8 &.+.a U ",
"= +.| , U 8 - = j e 3 * X X X * @ @ X @ # 8 8 @ @ , * @ = q.G = * @ = - e e 8 - 8 0.4.% * u =.4.j 8 ",
"8 +.| >.1.j 8 * j &. ., 1.= = 8 * * X , = @ X @ e j U , = y.$.= * * @ O @ >.a = = : q.G j h.S.c.V 8 ",
"5 ` 4.i.V , 3 5 L u.d.` : # # 8 , * @ 8 - * *   - $.v ` v : 8 @ * @ , @ . 8 % 3 1 ` 4.0.j ` g.j 8 8 ",
"3 j i.i.G $ 5 7 L 8 5 =.8 @ = = * * * $ , - 1 M j 8 = 8 a # = 8 , , u 8 j L $ [ u ` e = - j e , 7 8 ",
"@ * e.i.4.8 8 # # + ,  .8 = G 5 , , * , | K $.1.G = 8 # i % a a X X * &.9.` 8 a 8 # - V * j e @ 8 = ",
"v q.e - # # @ # + # 8 8 * * q.-.5 u +.8 G 0.j.>.8 $ = a i a V a 8 * X - - = = ;.8 @ 8 $ 3 7 : = # # ",
"i.q.8 # # a ; j j E ` >.* = i.b.x.q.p.U G e.c.3.8 % 8 # 3 8 j 8 L U * e - ; ;.:.' % [ 8 5 u = : >.u.",
"i.4.8 = >.l.b.b.x.g.i.i.0.8 j b.n.l.= $.- 3.e.u.8 V j 8 u ` 1.j e u 8 * = 3.i.i.V # # = *   X * ; ; ",
"= = = = 0.g.h.4.* i.1.: = 8 ' G e - - c.c.; - = @ j 8 L -.x.V , @ * & X . . @ * @ + # @ X * *   @ @ ",
"= ; - >.>.= 5 7 U b.4.8 >.= j = = * : y.j.j $ = = G a V i.i.G 8 % = = = *   X # # 8 % # @ , = @ # a ",
"= - i.1.3.; 8 4.B.n.i.` &.a x.q.G - - y.u.- 8 a l.>.8 8 3.i.1.8 i a # = = ; ; >.= 8 8 # @ * - u = 8 ",
"@ . @ . @ # ` U S.S.; * & - 3.g.` * 7 G ; # # V l.' % % 8 G = @ ; >.@ 8 e : >.>.;.+ # + @ . * * O @ ",
"= @   X . V n.l.l.4.; = * - y.y.v @ $ 8 ; >.>.w.i.0.8 7 L ; ; V e.0.8 8 & = :.e.e.# ; ; - 8 , = @ @ ",
"e M - v ` c.c.j.U 8 = 8 L 4.4.$.= @ @ O = :.:.3.$.- = = @ @ - :.e.1.# @ X X X & @ ; - ; q.q.G -.u 1 ",
"1 = v 8 ` k.% @ * 8 8 = j x.g.= = V G >.: * = G ; = ; ; X X   X @ @ @ @ * @   = = # = * 8 G v j U &.",
"= = G G >.j = # @ @ = ; &.e @ = 3.3.= 1.1.= G - = ;.i.3.* = @ X # ; 8 8 = j - ;.v * K * U V 8 = - $.",
"= - 1.q.4.e = # # 7 # 1.$.= * L ; 8 = - = = @ = 3.e.u.3.v e - - 4.V = @ = - >.; e u +.h.i.V 8 8 8 - ",
", , M j >.8.' a 4.g.j # ; # = U u e &.e j v G * = : v j j 1 - 1.3.= V 8 * & = @ * U h.i.y.= @ $ 8 7 ",
"@ = = @ @ 3 3 3 u ` v j = = = L L * = 8 v : : = = 8 - 8 * X & : 1.&.= # @ X X @ * = 1.- G 3.V # = @ ",
"# = @ $ @ + @ , * $.&.8 # @ @ # @ , = = = - = @ = - - a * @ * @ @ , @ @ @ @ @ # X X * * * M 8 * = * ",
"# # + # @ @ * @ X * U * # # # # @ * O * - 8 8 = = 8 =.s.h.M.|  .+. .$ @ * 8 @.>.- * 8 , 8 M j @   @ ",
"= b = = @ 8 8 @ , x.c.v = j 8 8 u 5 , -.p.8 u 8 O 8 = G V.c.G b.B.h.=.K | u +.| u L u 8 4.1.G = @ = ",
"j >.` - 3.>.&.+.K A.c.L K =.u * u , 8 p.` 8 = @     X 4.b.8 8 Z.V.x.s.=., , , @ 8 a = - G a @ @ 8 = ",
"i @.5 1 j M e j 4.x.x.` | +.` * 8 @ - 4.j ` 4.` $.G a p.d.+.-.A.b.d.$.U , * = @ @ $ e ` 4.@ @ a E 8 ",
"' L 8 L v = = = G >.4.@.b.V.x.M 8 = e 1.x.i.b.A.C.q.x.a.M.-.-.B.h.d.8 v v - &.e @ * U U = * a G >.8 ",
"= = 0.w.- 3 , 8 G G = = g.A.0.L u e -.g.q.-.u &.b.4.B.h.M.N.< [ < , | ` ` 4.@.U = = = = * * 8 @.+.8 ",
"$ = l.3.8 , [ u ` ` ; 8 = x.j.a 8 u >.8 8 u - 8 +.-.=.h.B. .$ , , $ 8 8 , [ @.u ` 8 , = * @ [ | ; 8 ",
"+.; e.i.a % 7 a # @ e U v G 4.8 8 a # + = 8 ` v v b.c.B.N.[ < $ * O @ @ = 7 | @ @ e [ , 8 , 5 e . - ",
"0.G e.G 8 a ' # @ , , j >.v # # j ' @ % 5 u ` 4.e u +.K < & , O   o O @ = = $.@ X e d.K ` @.e 1.* = ",
"u.X * = ; ; ;.j 8 | u ' 8.G j V 2.;.a 7 i L i b 8 & O @ - = - * @ .   - j 5 ` j * $.b.i.9.U e 3.- j ",
"@     = :.y.i.; # % 8 = @ @ - 3.y.;.# # # 8 @ @ @ * @ @ : y.i.> = - X @ 8 +.x.4.j ` U &.v v y.>.1.j ",
"= O . X @ = - @ @ + # @ X X . @ = @ + + # 8 # $ o o @ # 3.v.3.v = * X + * e x.i.G = @ * * $.x.q.` = ",
"j * * X   + @ # # # # @ , = X . @ # ; = % 8.p.] $ , , @ * $.> = * = @ = * e 8 v 8 j 8 @ @ $.x.q.j U ",
"< , 8 = * O @ j ` j j ; j U 8 = > :.$.# % # 8 @ $ 8 8 @ O 8 8 $.4.&.f.j = 8 u +.p.+.5 , , , &.v j &.",
"| 8 e , * * * j &.K e 1.$.v K X @ * @ @ # # 8 8 $ $ # % * j e 4.i.i.l.>.@ ` h.c.-.-. .8 = * * * 1 e ",
"= 1 e * * * $ < -., e e 8 - = =   @ = = # # L p.-.4.8 8 $ @ 8 = v l.c.l.= * j K e $.= 8 8 7 = 8 4.= ",
"x.9.U , , * ,  .| K 0.: 8 = v 5 8 4.G e j $ &.p.>.G 8 ' a 7 | 8 j p.>.p.e , K * * 8 8 ' p.7 = = - v ",
"x.y.@.u 5 @.8 v d.g.0.8 3 7 j U &.e 4.G U U p.8 @ # # L 8 8 | , j +.5 , , , -.x.U d.u p.p.8 8 $ = $.",
"y.=.j q.q.p.U $.y.x.u.a $ 7 [ L j 8 8 e = G q.` , = u h.4.8 7 = v ` * 1 , * &.b.b.h.u b.f.$ X # u j ",
"8 =.1.y.v.= v : 1.i.i.- % , +.| U 0.j 8 = e G l.4.d.A.A.0.' 8 8 U j = M - & 0.n.b.x.x.V.B.` @ = 8 8 ",
"* &.i.U - e x.x.v - = @ # = j U l.V % 3 , u q.j.4.9.g.c.' L L >.U K v -.&.U x.V.b.B.h.B.a.U 7 * , @ ",
", v V @ & - 3.i.' @ # # a 8 8 e c.>.# 3 7 L a 8 | 4.j $.0.8 8 ' 8 , 8 V # i x.x.h.B.L 8 # @ * & = , ",
"@ L j = e - q.i.L 8 a k.j.[ 3 +.i.0.8 8 8 # # 8 5 e : $.; ; V 8 @ @ 8 # + 8 8 % 8 8 @ 8 8 $ o @ G @ ",
"@ i , , 5 8 V ; % = j k.' ' 8 i % = % b >.@ @ , , @ * = # # >.; $ u 7 @ # % # # # % $ $ 8 , $ 8 1.@ ",
"# 7 5 u   $ e ; j ; ; i 8 8 i # # j b w.>.8 8 8 5 @ X = 3.e.u.G 8 8 @ @ # # + # j % 8 $ $ 8 8 $ j # ",
"' 8 % 8 @ O @ * :.1.8 8 8 8 8 O @ = 3.i.:.# = ; ; * X * = > :.= = 8 * j L @ @ 8 % @ % % $ % # @ @ 7 ",
"= @ + # * X X X   G +.3 V a @ X X X   * @ @ # # @ @ * @   X @ = j L u G L $ ] i # # # @ + # 8 # 7 7 "
};
