/* XPM */
static char *f1a88bea96e249a1db79e061938c8f251USpxt873Q8wr52E[] = {
/* columns rows colors chars-per-pixel */
"50 50 109 2 ",
"   c #6D3C1F",
".  c #733C1E",
"X  c #783B1F",
"o  c #6E3C23",
"O  c #6E3F28",
"+  c #743D23",
"@  c #793E24",
"#  c #743F2A",
"$  c #783F2B",
"%  c #6E4225",
"&  c #64412E",
"*  c #6D432C",
"=  c #6E492C",
"-  c #754325",
";  c #7A4325",
":  c #784824",
">  c #74442B",
",  c #7B452A",
"<  c #754A2D",
"1  c #7B4A2C",
"2  c #6D4532",
"3  c #6E4834",
"4  c #6E4B38",
"5  c #744631",
"6  c #7B4631",
"7  c #754A33",
"8  c #7C4C33",
"9  c #7C4F39",
"0  c #775235",
"q  c #7D5135",
"w  c #7D523B",
"e  c #7D5B40",
"r  c #824925",
"t  c #82462B",
"y  c #834B2E",
"u  c #8A4B2E",
"i  c #904F2F",
"p  c #8F502D",
"a  c #92512F",
"s  c #844D33",
"d  c #8B4D33",
"f  c #834F38",
"g  c #8B4E39",
"h  c #924F35",
"j  c #904F3B",
"k  c #845235",
"l  c #8C5335",
"z  c #865837",
"x  c #8D5836",
"c  c #84543B",
"v  c #8C543B",
"b  c #86593D",
"n  c #8C5A3D",
"m  c #915336",
"M  c #9A5937",
"N  c #92553B",
"B  c #99573C",
"V  c #935A3D",
"C  c #9A5B3D",
"Z  c #A45D3D",
"A  c #95603E",
"S  c #9B613D",
"D  c #845540",
"F  c #8C5641",
"G  c #855941",
"H  c #8D5B42",
"J  c #8F5F4A",
"K  c #925641",
"L  c #985640",
"P  c #935C42",
"I  c #9B5D42",
"U  c #935E49",
"Y  c #9F5E4A",
"T  c #A25E43",
"R  c #8E6144",
"E  c #8D624A",
"W  c #946144",
"Q  c #9A6144",
"!  c #94624A",
"~  c #9A634A",
"^  c #96694B",
"/  c #9D6B4C",
"(  c #9D6D52",
")  c #9D7152",
"_  c #A16344",
"`  c #A3664A",
"'  c #A26C4C",
"]  c #AC6F4E",
"[  c #A46D52",
"{  c #A57254",
"}  c #AB7355",
"|  c #AD7956",
" . c #A57459",
".. c #AC7559",
"X. c #A7785A",
"o. c #AB7B5B",
"O. c #B27455",
"+. c #B37B55",
"@. c #B3765A",
"#. c #BD775C",
"$. c #B47A5C",
"%. c #BB7A5C",
"&. c #AA7C62",
"*. c #B37E62",
"=. c #BC7C62",
"-. c #C07556",
";. c #C17C5C",
":. c #A98064",
">. c #B58464",
/* pixels */
"*.$.>.+.$.$.~ *.%.%.%.%.%.=.-.-.%.$.{ >.>.>.;.%.%.%.=.=.$.>.:.R >.+.O.;.%.-.;.#.=.$.:.z W X.=.=.%.%.",
"V V C C C V s U I Z C C B C M Z _ m ; P Q S Z Z T C C I C W H < m S S S B Z T T Y P R < n ~ I L C Z ",
"P V m m y y > s l m V l l l i a M u + V a M p M m m N C C V n < l m m N x m h u m l z ; l l u h m a ",
"s d m m y , > > r : 1 : 1 s u u i i ; , X r p M m N d m m y s - @ @ : , ; y d h d d u : r t t l N u ",
"[ } ] } ' W H c k k k k b ^ { | ] O.....O.+.+.' n / } O.O.' W v v n b b b v ~ } @.} O.....| O.| ) E ",
"v V N C n P R n W C A z 8 z n C T Z P n A A S V : V W V m m V H K F F b w 5 v U I V Q Q V V S V H 7 ",
"v B B Z L P n F m m L v 6 8 l m m m B N N m m m . l v l u y k l g f k c c 1 t d N N B B m m M m b O ",
"K N m B N L g K N N L v 6 s l d d m K K N V m p ; k g s l d s s s s k 8 s > s g h N g l V V N V D 2 ",
"U P Q _ P ~ v n N V P ! ! F ! I P W J J ! I I I V ! H H W ^ b b n v z n b v K P n W P R ^ P I ~ W ! ",
"H P C W N H 8 H V P P P U H U v c b w w F P P N U ! G H n n w w n n n R n n I U P n q H ) ! P F P n ",
"8 b z x v k - c l V N v J F n y z q 6 6 v P L L g F f f s k < > k l x l z l N d g c 6 q W H L v s s ",
"q z y y k k > v N N l v H v g k k c 9 f g g u d c g 9 g s c 8 5 l m x n n N v s s v c c F F K N v s ",
"< > - - 1 z D H A V n z 8 5 - > > 8 b H ! I B P c G G R z V n c V n l z q 1 6 , , , 1 c R n n H b 7 ",
"E R n V z n P n n V V c 8 b n n z v n H P N g l , b R n l n H P N n n b q 1 v P K K F N P n n b w 4 ",
"E F N V V N U F V B V l > c z z N N c v N N V V o c H n l N N P P V n b 0 > 8 l g B N d g k V v e 2 ",
"! v y d l d s d d r u s > c k y 1 g s 6 s l l k o b n v l d d s d s q 0 < < 8 s g d t s s y z c D 2 ",
"b q ; ; @ 1 # < t @ @ < 8 c > ; , 1 # 6 - 8 , 1 < c f 6 , : 6 # $ , $ > 1 8 8 $ , $ , > 1 > > < 5 6 ",
"F n l l l n 6 F N N K P H U n n V 8 # H H n v n K U F v c v c 6 v N P v v n H n n F c < G H H v F J ",
"H n N l n g o v n N P F F U K P I v $ U n n n V K K g v V P v 6 K L P H F n P U n P v > U H v v g v ",
"f t d y s 8 > b c l v f g F N N v v $ F k y k u K P v v C n g 6 l k k k k c v v K F c > c g g N s s ",
", $ ; ; , > q w : - : - O 6 1 , , 1 + v 8 : : , - t , ; ; ; 1 : 8 < > > < > < < 1 , 1 6 n 8 , $ > * ",
"F v N N l c ! D n n n n 8 c v v l V k U n z z p + s N N x n H P v v v b c s s l v v v c c k g f q 3 ",
"n N V N B F U K N N V P 6 c k z V Q P n l m A l X d B V N m N g l l n n k y s g N P I P v v B F D 5 ",
"v l V m B N g j u d d v # q y y l l n P n l x p @ d l l p d l s s y s 1 1 ; t d d g g H v V g v D 2 ",
"R 8 , r . , o ; . X + - 8 c s 1 , < 8 > 1 1 : : $ l s @ - .     + . + o 1 s s t t 1 1 8 : 1 1 , > 7 ",
"X...@.@.} { v ~ I A / [ o.&.X.{ o.X. .H / / ^ n P U K v n V H F [ ! I W  .o...] ....{ ) R n W Q  ...",
"I Y B M P N > n C V N V U P l N l v v # n A C V I U I I P l s + j B V V V V I C m l z x n n V W B P ",
"t N u m m s > s x l v V P F m m u , s 8 z 1 l x t t t t t t s , B m g l N l N h h u t k V V l m l d ",
"y V l p , - : > . . : ; 1 c m l l - < s ; - .   + t @ . + . : < @ . . . 1 t N l l u , : y : . ; s > ",
"Q { } %...{ o./ ' ' ' W W } $.@.@.....*.{ { | ' l [ ..} O.{ [ ..' { { / A V } @.@.@.} } | } { ..( U ",
"{ Q B V C I ! P B B L l s P I V V Y U Y V n C m @ B I C C V P F V n n x y 1 I L I S V C I P N B F 4 ",
"/ z x l l v l N B m N s - s s u u d s d C x m m + d B V l N P l m x x z 1 - h u u d u k d m d v F 5 ",
"A V p l d m s v N m l l 1 l x l m m d N m m m m @ d l B V m V k l N x V z : l N N d l y l m m z c 8 ",
"o...O.@.} } A } @.@.@.@...$.@.} @.O.! ..} @.+.%.} @.@.$.@.@.[ V } #.} } | X.$.O.O.@...n Q } ..$.*...",
"C B C C V z - A V Q C S V Q Z S C x - ^ Q _ M M _ Y I L V S n 1 V C S Q C A I L B Q W 1 Q ` C _ I L ",
"V N m l l 1   z v C n n l l d C x z   n l m m C m l L V V A z = z l N V n l j B B N z : V d u h N d ",
"y l d g v 6 % < 1 8 6 8 k c s d k k   < : r p a v d N l k k < = : < 1 < 1 s d d v s q < k 1 y l F g ",
"Q } [ [ ! b b c b F n P n H U ~ ' { ^ ) ' / ] ' l W [ [ ' Q n b b n n n n c P U ~ / ) ) ' ' ' ' / J ",
"l V C C V V C V L I P v 1 8 n P V I P P P C C V @ n I P M N V P v v v K c > k L T Y P P V P K v G 3 ",
"n z V V N V n v L N N n 1 8 c g N L F H v V V l . v g d l u g s g l 8 c q > 8 s v L n P N N v v D 2 ",
"H F H P v U F v F K g w 7 0 D c v g D G v F n 1 O F c s s 6 c c s c q c 0 = 6 F g v v b P v H R D 4 ",
"^ ~ P ! ! ! b P U ! U ! E G J J ! U J J H H n v b G f H P v b D v H b G G b F U U ! R ! ^ P W W ! F ",
"V Q N I W V < z K I n W H P U U c F e 0 G n n P U U H H P P b 5 F U P P R H L L L P c b ` ~ I P K K ",
"d v u m l k - l l n v P n l s s f w 9 7 G ! V P f D c s 1 b 0 % 8 v g n F F K g g g 8 q P l N N g g ",
"k g g v y 1 < k v l l n v n g f c 9 7 5 8 z s s v c f c s z 7 0 c n n l v z l d y k q k H F N v s 6 ",
"- + $ 1 - s z n P n s 1 + > , > > + w E ! n V V F F v U v n w b n n l k > > , t , > > < H K v y 9 3 ",
"R c V N v l n V C N V v 1 n v v L n F F n k l n + n v P m C P K V V l l 1 1 g g j j H H N l V v e # ",
"! n V N V V N B C N C v : k n v j j F v n P N v o U P L l N L K B N n n q > l N K N v v v k U D e & ",
"E 0 q 9 s s s 1 s s s 6 5 w 8 8 9 f 9 f c c v D O D c G F v s s s s 8 q 9 8 7 9 9 8 9 9 f f D D e 3 ",
"e = > > > > > % o o > > = w 7 * * > # > > 5 5 5 O c 5 5 6 > # # + o o * 5 * * 5 > * # > > 5 5 3 4 O "
};
