/* XPM */
static char *a3b3670e5cd945c8a2df925fad793f86Id877S8AzGN2cwGY[] = {
/* columns rows colors chars-per-pixel */
"50 50 73 1 ",
"  c #26201A",
". c #28231D",
"X c #32291F",
"o c #393127",
"O c #3B3329",
"+ c #42362A",
"@ c #443B2E",
"# c #483E32",
"$ c #4C4235",
"% c #4F4539",
"& c #524636",
"* c #524639",
"= c #564A3B",
"- c #594D3C",
"; c #5F513F",
": c #5E5242",
"> c #625544",
", c #695641",
"< c #675945",
"1 c #695946",
"2 c #615648",
"3 c #66594A",
"4 c #6B5D4C",
"5 c #705F4A",
"6 c #6B5F50",
"7 c #6E604D",
"8 c #73624E",
"9 c #78654F",
"0 c #6E6151",
"q c #756551",
"w c #796650",
"e c #766856",
"r c #7B6A55",
"t c #776A59",
"y c #7D6D59",
"u c #7F705E",
"i c #816D55",
"p c #806F5A",
"a c #847056",
"s c #84725C",
"d c #89765D",
"f c #8D795E",
"g c #857661",
"h c #897761",
"j c #877864",
"k c #8C7A63",
"l c #8E7E69",
"z c #927E63",
"x c #907E69",
"c c #958065",
"v c #998366",
"b c #94826B",
"n c #9B866B",
"m c #9E896D",
"M c #978671",
"N c #998772",
"B c #9D8A71",
"V c #A08A6F",
"C c #A28D73",
"Z c #A18F7A",
"A c #A59176",
"S c #A89277",
"D c #A69279",
"F c #AA957B",
"G c #AC987E",
"H c #B19B7E",
"J c #A99780",
"K c #AE9A81",
"L c #B29D83",
"P c #B4A087",
"I c #B6A38B",
"U c #B8A58C",
"Y c #BBA88F",
/* pixels */
"-seyyrrrrrrrrrrrrrrrrrrryrrrrrrrrrrrrrr71rrrryrrr:",
"rAKqsHFFFGGFFFFFFSGGFFCCAFGFFGHFFFGGFFHbgGSFGz:CFl",
"qCnsdSCAAADASASFFGSADDCCAFDFDFSFFFDDADAADAACCnjnBx",
"8rtxnCFFADDDAAASbdADDFDDAADFGGGGDADDFADAAASADBsB-j",
"qwsJtLDMKKKKGGGKFbJKKGJKJFJJGJGFGFJJGFFFFG4BJMBAnl",
"qFCIygjOKKLKPPPGDGDJFFFFGGGDFFFFFGGFFGGFFFnj=DFBFb",
"8CDLx-O2847q==23330q00604234344677700337424=:0KCSb",
"qCAL#<*<8dakyX;7ysjjsggg3*gpysdxckggg09fsy3:nbFCAb",
"5CCLff,9ifzdvl$8ujBNgbmDr*nxbDBDDsbCBrzCAku:AFFCAb",
"qCCIVz;iafcvdml$jbZNnAAGp>DnDFDIJecDCgbDGzs:CDFCAb",
"qCCInz;dvzcnVfmk$jNNBACDgqDBDFKLPgMJCsMGGlu:CDGCAl",
"qCDIvz,azcavnAfVg%bMBCADxgCCGZFULjDFAunGFbs:CKKADb",
"8CSUnz&iaz4ivmVfBu$cjnADnhCCGCBUKlDJDsnGFby:CGKCGb",
"5CZLVz&-9if=anmCkmu$hbADMhCBDZCUKbFDAgvJGbs:BGKAFl",
"qCCUVz-,-azd=rVVAfnu$jBDnjCCDDDIKlDFAgbKFbs:CGKCFb",
"qCCUVz&98$dcf<ivmAkny=bbnjZBDFLLPbDFAgnFFbs:CGKAFb",
"qCDUmv&8y7@ycfrdcmVfVs:cjsAmAGJPLCDFBunFGbs:CDKAFM",
"qAFUmv&rdas$rzzvccVAfmg:debCDDKPIADFCynGGbs:VAKCFb",
"qCSUmv&wk;rc&=cfVccVCfVf2ebBADKPLADDAgbFGbs:CAKjGb",
"9VCUmm=9c>;nr+qkfnccmCcnj<fnBDGIPZZFCbnGGbs2BDDsLb",
"8CAUmm=9crkAs1,9ffVccmCcnl1znDFKLDDJCbnFGbs:BFBgLb",
"qCAUvm=wkscFg9k98ffmccVVzml$cnBPICDFCbbGGbs>VLMcLb",
"8CAImm=qcfnFl9bk8<fdnccVCzVyokBJICDJAlnJGbs>CLbjLb",
"8CAImm=8kcmFlrCbf,8cdvcfnCzCe lDKCDFCyvGGbs2CKcqLx",
"qAAImm=8kcCSsrDnvz<dvaVddVVzFr.nFBAJCtvFKbs2CLb3Lb",
"8AAUcc;8lzVGy9DnBVj<fcdnccVVzVhonDCFAebFFbs:DLCgKb",
"8AAYya;wccVGt9FBCCbz-pzdmccVCfcb%jCBAqbGKbs>DJFCGb",
"8FAYdy;rccVGeeACCFCns,dzdvccVCfCB$dACybFGbs<DGKCFx",
"8ASUvc-rzcCFtwDBDJCDka9kzdVcnVCfVD:mDpnGGbs2DFFCFx",
"8SDIVm=rbzCFurDBJJDCzbz1dzdncnCVfAb$xqzGKbs>DFGCFb",
"8SFIVv=wzbCFjwDBDGDCvBCd;adiVzmVVfS4#4jDDbs2DDGCDb",
"8FSIVm=rzvVDlrDBFGAZnmFVw$dcdVzmCVzC3#dBDbs>CAFCAx",
"8SDUVm=wccCSbrDmDKDDbmDShq*pvdmcnAmcVq-lZxp<CCGCSl",
"8FDUVv=wccCSbwDmFJFAvCDSxrd&svfVffAmzAb-jxr:ZSDCAz",
"8DDUVm=rccBScwDMDJDDnCDDlpxz$snfCdrSVfCC#rq:ASDCAx",
"8FDIVm=9ccCFbwFuNLCCnZDFdpBvd%fvdAdaCCzVC-4:CDDCSx",
"8FFPmm=rcvCFj7FqNKCZzZDFlsAMnh=kvdCznVS5dB--DSFCAx",
"8AFImm=rcVCSc7FeNLCCVCFFbtBBBBk;dnsVCVVV=ss$DDDCSx",
"8AFIVm=rcBCFu8FsxKSSxSFDnqBBBmBB>dnaVVVCn7zqCDFCAx",
"8FFIVm-wcmCFt8FbzFZFzCDSneCBBBgCB-ynfVVnCns1AAFVSx",
"qAAUVm-qcbVD78CvnDCCnBZSceBNBBybCk$rvanvzfd,AAFCSx",
"8DDUVm-qucbb7qvcnCBBxvCVhqbBBnyCBds&rcsfsai1ADFVSx",
"8SDUVm-<rysc7,usdkfjrpffr1ddddsbziprO8dada81nAFCCx",
"8SSU;87=;><7;=77441444141:211341132:=&744451b4BCSx",
"8CAId:7mAFFAADAACAACCADCCACACCZCCCCDFDAACDdrekAVSl",
"8FFPycrcvvvvvvvvvvvvnvvnnvvnnnmCCCnCmmVVmmkskuGVDx",
"77BccvCmCCCVBAACCCCCCCCCCCCACnz46dCCACCAADFFSbnDqs",
"qu=sSVCCCCCCCFFFDFFFFGFFFKFFFJFxlCDFFDFDFDDDDDBngg",
"7ywdACAACCCCCCCCCVVCCVCVVCSSSSFHFSSSSSSSSSACSS3slx",
"$yfyayiiawaiaaaaaddaaaaaiaaaaddddjhhdhjdhhffhkrdr:"
};
