/* XPM */
static char *d08e2626425446c7fc58a247165edc7fXu2nuiYm9gXYIcpZ[] = {
/* columns rows colors chars-per-pixel */
"100 100 86 1 ",
"  c #151515",
". c #171818",
"X c #1C1C1C",
"o c #20201F",
"O c #1F1F20",
"+ c #1F2020",
"@ c #232323",
"# c #282727",
"$ c #282827",
"% c #2B2A2A",
"& c #322F2C",
"* c #35322E",
"= c #38342F",
"- c #343333",
"; c #3B3732",
": c #3E3935",
"> c #3C3C3C",
", c #413C37",
"< c #433E39",
"1 c #46413C",
"2 c #49443E",
"3 c #444444",
"4 c #4C4641",
"5 c #4E4943",
"6 c #4C4C4C",
"7 c #514B45",
"8 c #544E49",
"9 c #57514A",
"0 c #5B544D",
"q c #535353",
"w c #5E5750",
"e c #585857",
"r c #5C5C5C",
"t c #625B54",
"y c #665F58",
"u c #67615B",
"i c #6C655D",
"p c #646464",
"a c #6F6860",
"s c #6C6C6C",
"d c #746D66",
"f c #746F6A",
"g c #75706B",
"h c #7C746D",
"j c #747474",
"k c #7D7771",
"l c #7F7871",
"z c #777878",
"x c #7C7C7C",
"c c #837C74",
"v c #877F78",
"b c #878077",
"n c #868079",
"m c #8B837B",
"M c #8F887F",
"N c #90877F",
"B c #90887F",
"V c #7F8080",
"C c #848484",
"Z c #888787",
"A c #878788",
"S c #878888",
"D c #8B8B8B",
"F c #948C83",
"G c #988F86",
"H c #908F8F",
"J c #989087",
"K c #90908F",
"L c #9C938A",
"P c #939393",
"I c #989797",
"U c #989897",
"Y c #9B9B9B",
"T c #A0978E",
"R c #A1988E",
"E c #A39B92",
"W c #A09F9F",
"Q c #A0A09F",
"! c #ABA298",
"~ c #9F9FA0",
"^ c #9FA0A0",
"/ c #A3A3A3",
"( c #A8A8A7",
") c #AAAAAA",
"_ c #B2B2B2",
"` c #B9B9BA",
/* pixels */
"dchhcvmcvmccFJJFnFLmmGFJE!EEUJJJcccgcGGFLvNcvvlhgicLJJncnccchlhhcnccFhlnchcmFZmcdhchcFFZmllcddcdhnut",
"cYPU/UUPIUUPDPPZCHVD~)P(___~~PPDxDDDKPDKDzVfzZPCqtF~IPPY^YUPxPsCUxxIUjxDjzDDCHZCZDUUYYW//YYPsHUjxsq5",
"hZPPDDPDDPHPHHDPxxCU/HP/)PPYICSHnDCVSVCACszszCDs&8FZDCDZPPDDPxjHPjxDCCsjzzjjxADAPPYUPPWUPPDDxDCxjq-,",
"gZDCzZDCVCADDHDDjCHDHVPPHxIUICSHzHDCxCVxjpjjjxDr%9FZCxxxDDVCCpAjjjjxjVssjsrjjjVvZDDACHKPIDxCsVxxs3%2",
"hZDZCDSxxDDHPDHPzjVSYIYIAU(UHDISxDDxCCxZjpsVjDCr%8cnCxAZDDjDDxjsPCDCxCjjzfzxjVCxDPPPUPIYPPHZCCVCp6$4",
"hCDDDPKADKPAADHVqjSPYIY/DY~VVDPxCVZPPCZDjrDVxCVp%9mZZxADIDxYZxxVPCDxxzxjCCxVZDDxUYDPDKIIYYPzCSxjjq%<",
"cUPPPPDCVCVxDDArrKPIIPPUDCHVDHHVADP~YKPDsVDAVfVr%5ZCZDPPKCVPHDVZDsjszxCCCxzCCHDx/DDPZDDU/PDjDCsxxr-:",
"hDUUPCxxxDxxACVesASAPPDDDYPKIISHPKKISSDZAjzPxACq&5vZPPPDSxY~UCxxxjCxCZSZzxjACAxACZxDDZDYPDCpDxxDCp%2",
"kPUSDxzSDKVCSCzpsVDCCDxDIUPHVKDHUDPKVDHPCpzDVVAp%8mHUDIUPI/IDjjqssCDZDZzxCxDxxzsZxjZACSDDCxCHxVZDp%<",
"cPYIAVDCHYPHKHxjxDSCDKCPIPDCCZCDIPYDVVDICxCDHVCr@8FHIDPDCHDVxjrejVPxCCCCPzVxsxACSxjVZCxDZxCZZxAVCe%2",
"kPIKCDSHUPKPHHsjIzCjAVZZPDxCAsVHADDAVVKSjjsPYCsr@5nPUHDZxCDVxspxxPZxZxSVAjjpxPAVDjjZCVSDCSDZCZjxxq$3",
"kIHDPKSHIISDCSxAHxsxVxPHDVxCDCDSCVDSCAPCDVzPIjsr%2cUKDZxxZCxAVAxpxzxCDDSxjCjDDxVCsxSVCCCDDADZjpsCr%1",
"hPPDPHSAPDVCCVzVjsxHDVPDVVDDPHSDZADDDPUKDjpZVrjr$8ZPSxjzxCADPCCsrCZCDACxsCCsDISCZxCDCADKHSADjxsjPr#<",
"kIPDPHHPDZAACACjsCPDZVDVVzCPIPDDDDDKYYKHCeZDxjC6#4MDZCxDDADDxxzsxCZDKAZxjxjxDIHAAZCDDPYDDKDZCVxCvq@1",
"cIPPKHDKKHHPPACCD/UACCDACCPYPDCxCCHIYPDAzzHVHZr6%2ccDDxCCDSxjZxjjxDPACDZjjjCHPzHPPHIPDCSKKDSDzCCjq%3",
"nHKDxzCSSDYIUPPPIUHxjxPPCHY~HxzCDSPPPPCKAVDDDzpr%1hVDxjCDDZxVxxxxZDDxVZjzxsDDHDIYUDUUHACDSCSPCjxsq%2",
"cVxxzVDDDPKDPHK~YISpjVDxxCPIjjASPHCDIPPYDDDZVppe@4dsxzxxzzCCxCVVCZDPxzVzpqsVVDPPUSAUCCSDVZDDDxzxp6%2",
"hspjxxVDZDKHHCPYPDjpSDCADDUPsCYUPSSCKDCKPZxxpqs6@8dxDCxsjxAAjxjxCZPDxvzjrpAADUYIDxDDVCVHZCDDCxVrpr#4",
"lsCVCDDACCHAVPUIDVzxCACDYYPPxP)UDDHZDKDZAjjjrsp6$5gDPxzjxVCxssxxxDHCxjszrjAZHIDVjZHPDADDZDDDVjppxq@4",
"hxHCxxxxxxSCPPHVzCxxCVDPDPUDDIUUKPSCVAjjSpsjpsr6#2hCCssVxVxxzVVZDDCzjjjVpxVDZHPVxDDAZACAZAZZCsjVz6#2",
"dZVjxjxZzxCAPCVvxjsjzVHVxPxjZCDZCVCAxxjZzejsspp6+<dsCxjVzCVxVxVDxxzzjxzssxxCxZDjxVzVvzVVxxZACjzjp3#,",
"djVsxjxjpzCCVjjCxjxjCAAsjjjpjxjssjjCjjxjperrpsr>+2djxjnjjjjzxzCzjxxxjsfpppsssjjjpszzssjjxjzjjsrqe3@2",
"ljp666q666rrrqqqq6qq6qq33qq36q3qqqq6qqq6633333-$X2dpqqq6q66qqq866qqq666336336666>6q6366qq6qq633>3-@4",
"g3XX.X..XXO@OO@OX@@XX@O..X  XXX@XX.XOO.+OXX.     ,u>+.XXX.X.X..X@X.XOXX.X.XOXXX. XX...X@X@O.  ...O.,",
"cw777542,,,:,,,42,:::,:==:1,,,21,2::,:12,<1,<,,,<ti04222<<<<<1<,;::25,;<,=&;,:,2<2:,<1<<2<21<12::1:u",
"ETRTTFmncccvnlcGFFhhhgguiMclllnmmlcllcnmnhhcbcnvccmmmmFmccgjcvvcllcbmmglct0cclmvvmvvnncNmncnNvvkchlJ",
"UIQ_HzsA~YUY//)/YPDPCSp37hCpjKPDDSZCP/UUPDZxxxspCDPCDPY~xVCIPZZHPUPPPUDZj35cDDUYU(Y~PDHIUUYPZxpHKxDD",
"PW/YrjjPDCDHI(/PDDDPUD6#2hsrjPPDZxsZUUPZDDZVnAVpZKDCDPDUvAIHDCHPCAPPDDDxq#4lZ^DD(IZPDxZDPPPDCvzPPDzZ",
"DPPjsPzzxZCCCHPDZDDZZs-#7hjgzDZxCjjDPxCZDSCCCjppCVxpjxCDsxZZCZCZZCDZjxjp3+8nPUsCPxDSjjCxDCxxCVZxZzzC",
"HDxsDSjZUDDCxDAPYPZjZp3@2bDCHKADCVAIPVCDDDCxjssxDPjzDDCxsZDxjzzCSDZVjjsp-#7n~KCHSHHzxHCCxxjxAxzCxszC",
"DCxvKVVACDPDCDP~YDCPDr6@2hKHVDPPCDPUPDDPZDxCssjxZxsCDZjCCDZxzCHYPHCCCspp;@7bUZxACPCHYIDZVxVDDxVCxsZK",
"DCCCSADCVDACZPPDDDZjVr6X2cCCjPPPKPYIKDPDVZxCpjZxjjZDZZDPDZZjCPYIPDZZSjjp>@4cDDAAxPU)YYUDAxCVDjDDCZSC",
"DAPDDPVxPPAADDDPAVjVCs3O<kCzjPIPxCDDCCVCHVfjjjsjjjDDZPDVxVxxCZDDZCxxDCxp6#5cDZxZDKPDVDDYjxZxKxIKHzVC",
"PUDCDAxxPDVCAAHHDZjxVp-X4hsjCAxVCKVxzxxZAspjjssVCpxCDVjsjVAADxAZCSDDZVVj3O7nVxCDDCVxDDDDsVjDDxZIjsHU",
"xDjzZZDDPDCAPDDZDZjxxe-O<gjxzjzDHCzzxxVxxsszzsjAjpVHVCjsZPDDCVZPAPPDZPzr3#5FYPDDCZKDUDCVxCzPZxYCrxHH",
"xxsVxZDDY~IIIDCZZzVAVs3O<hCCAxCACxVCCCxjzsjxzAIHCjADAAzsZCVCVHIPPUYY/UZs6%4m)PCDSZCDDjxDHjC/xZ/xzCxZ",
"PZZDDDPDY~PHZCxVzzDCzp-@<gCFDVVCDVDDVZCzjjjAPIPHDrxAjsjsxzzxCDHDIU~//DCrq%,n/PPPPADZCxDzzsxDsDYjjPII",
"DZSPPDDHPPCjzCxjjVZzss6@7cjszVjAVjCCxzsjxxCPYHHDppAvjACjVACCVAZH^YY/PPxsr@2l/)PY~PUDxsCCZVACCSDjVPVx",
"VZKDCZPPDCzZPAVjVHCzjx3X4cssCVzHVxCxxxzxCCHPPDxxzCVjjAVxIDZHCPH~//YYPHzx6%1h_/ZP/PDjjjCZjDDZDDDCCZVx",
"DDDxVDPZHVxPHzxDPHZZzs3@,kjjDHvDVxZCZDCCVDHHDxjAxzVzVVHYIAxxDUI~//UY/DVs6%<c/PxDDACjZPAzDUxxSCZDxVAZ",
"DPCjCCCZHVxzxVCIHHZxjsqO7mVxHZDVjzDZCCVVCHDDVjZCxsxjVxDCCDjxPY//Y/YYYZjp3#<hDVsVDDPDUDxSPIDjxDPZDsHZ",
"ADxxxxxCCzzjADZCDZxjjr>@4cVCCDPVjZHVxCACVVDHVCAjssxxxjxVDxzPP~/YPYYPxCZr>#2dVCVAYUDDDVDCADDVDPVjxzPZ",
"xjsjCZCVAVjzCCZHDVCVjq6@,gHPDDDxVIDzxCVxVCADACCsjZDxjjCxxADPPIPHxDDjpAse6#2hDACUPVZPVPPCDZCCxjAjzHxZ",
"pjxPPCCSAjjzxCDHZVHxssq@5kHDxACCAvVzzjjVZAZZZZzxxCssCjVxP(DPPDDxxPVjjzxp6#2cZCxAAZCDCHZjxDZHPVxpHAVV",
"VSUICjxDAACjzCDZCCCsjs3@4cCCVVAHxCCzjsjxzVxzAVVVpsrjjxVZPPCDCCxxDUxCZCCp3%2hjCVADCxCCZxjxPPCxArsPPZx",
"VZVxjsjZCCVzxVxxxjxsse3#<hjfzjVVVCzjjssjjxjjVjVrqpjCjxsjZDxCAZVCDDsjsjss3@2dCDCzCCCCCVxxzSZjssrCZxzV",
"zjjsppjCCvVzzjszzjsppr6#9vvzjzCzVsxjjsszjzzjsszepsjjspsxxxxxxjjjxzseprps3+,gKCzCZZSDCxxzzxjsrpjDxzVj",
"63336qqeqeqqeqqqqq666q>@8Zs66qeqqq636666qq8q66666q66q6qpq6qqqq6qee3>>>6q>@,hCpquqqqqeqeqqqq33qqeqqq6",
"X...OOXO.XXoXXXX.XXXXO. 7d* XXXXXX....XXX.X@XXOX.XXX@XXoX.OOooO@@@.  .O@ .<iq#XXXXXO@XXOXoo.XOXOO.OX",
":,<2,,2,244277422<,<5479dcy97<,,1444545754,:22,,:&=,,:<,,,,,,:::,:,:<2:1120i942<,,2<,22,=,21<<<2<<,;",
"cmvnmcFmnFLFFFJmFFcFGLLTETRELcccFFcFFFLLTJvcmcddduccgcncmccmFmcvccgcmclvcbmmLFMmFmnFcmFccvmNcgnvchdy",
"c/PPKYYUPDPHDDZDHPZxCWYZzVHCCI~IDCVjCCPKDDUDCsrp68hvZPPDHPPU~UIY/PDPxxCCP_)`_PP/~/Y)(UPIPIHWxCHPDC68",
"hDUHDKU~PSDDZCxCHPZVZPHzjVssAADzjxCCDZDCxZDxsprr%5hZDZZDCD~PDZHY~YYZCVAYY))_YUDPUIY~DHDDHPDDDDCPHs&3",
"cDIzCDADZxZCxjjxZzzxAZZxsppsssVsjxvCxxxxxxZCjesr%4hCHAjVCCZVxjxIHDDVzsHYDUPPCxzSPHDDCzjxCvxADzVxe6#4",
"hDAzzPPASxxjjjCxjjzjACCjsqsjssjjxSzzjxAVZxxxsssq%<cDPxVDPCVxCCVPDZHAADYDPHZDxCZDDPDCZxxjxVCAAxZzpe%2",
"gvVCDDHACxjjxDPxADsCZjxxppfVjjjxzxzsxVDCCCxjssp6%2cCKDPDDCADPDCDCCPKPPVzPszZZxxZZHAVDVxzjCDDZxssjr%<",
"dxzxCxVVxnxxDUIPICzDCsxspssCxrrCCDCzxADDZVCjsxjq%7gZPCxVVxxDADACPIPCHzpzDpxPPVZSZDZZxjxVVDCzzppzxq@2",
"djjzzVZZAVxDHDPHDAjsjpjsjessrpzADCDAVCxxjjxxxjjq%2hDPjxjxCVDDPDPIYDHVjzAZxPDDZADVDAxjCCDHPxszxsjj6#1",
"dzVxZCCzVCVSKDSHACsjzjCVpszsjxxCAHHCPDZxzxxCxxzq@4nZVCZxVHHPYUPYDIHHCSxCVKPZUDCZADCsCZVHKSxjzxjppq%,",
"hVCCDZzzADxzxDSCCCzsppCVzCxszsAAZADxCZCCZxSDVxxq#7cCxCsjjZPPPPPPU/~IPHVpCHxSZxxADxjjCZDDZxjSzerprq$,",
"gCPZzCVjVZxjzHxCAVj6rvCzsjsjjsPzCxxzxCSCCCSDAxjr#4cZzsssjDYDDPUI//DKCVspDCCxVCZZCsjCCDCxxjCZp3sspr%2",
"hCDVjxCVCzVCCCVDCsqrCVxxxCVVrsDCPDxVSZDAxZSSZAzr%4cDCjxzZPYAAPYU^PIUZDDxVxzsZVVxxxVHPKCxDCAse6Cjsr#4",
"dVCxxVHDxxDDCVKCzjjVVCxzCCjsrzxxCxVxjCVCxCDCxxAr$8cvPxVVsCPPHUY/YPUYDPxjCzjsCzxVxDCPPKDHPACpszCzje#,",
"hAvxZCHVVDCAHDPxzCxVjxjjCVsjvCjCVzssxVCxjxZxVCCe@8gCYjpssDYHDP~/IHDPPDspxxzxVxxCCUSZAADICxxDHzxjzr$1",
"hADZZCVDDDVHZCDjsspAjsVVVxpjCspAxssxCCCxxZDCCACe#4hCZspxDDPCDU/PCZCPPxsVxzjDxzAxVxxCxCCAzDDxsspsCq@<",
"lDCxCzZHCADVCPVsxsjDesCACssvjrjAjszDZCCZDDDDZxxe#2gxCpsPZDPSUPPVCCSKHSACjjxDxxYICxDDADHVVAVjxxrxjq#2",
"lPZxVxCjxCAxDDVxxzVzpVjjzVDZxCAAASDDDPPPZCZDCxje%5djxrDDZYPDYKAPHHDCKDxzzjPDxZIIVxDxPCCCCVACCjxjze@2",
"kHAzxxzsxDZCDHCxVZxzVVjzxAAZACCIPDSZPPDCVCxCxxze%5dsCzDzSPZDUSZSxCDPPDCAVVDYDCPPzVCCSvzCCDAHDxxrj3#<",
"hZCjZVjzZZDDZDCVvCzzCzjCCICZAAVZDCDPPZxzCVxVVxj6X4vCPxsVZDSDDPPzVPPKHHPCzCCHjxHKxCZDPCDHHADDHDzrp3%<",
"dCDxVxjjCCVxVVVzjjVsjpsADCxDzsjVxDPDZZxCDCCxspe3O7FDVxHPPDDDPUPjCPDPPHDCHPVCssCAjsxZDDPPDPHAzxpqp6%3",
"dADjjjjjjjzxjzjjjxzpjjPCVVxxzjVVxxCZjZVxDZxjjsq3@7vCxDDDDjCPPZjjCDxCDDHCCsxDxsDVxzCDVxCCADDxsxrrp3#<",
"dzxjsssjjjjjfjssjsppsxAjsjspjjzjzzxjsxCVCCxxZse6#<hZjjjCjsxCspsszjjxZVjjppxzssjsVzjCjxxjxjjseeqer6&<",
"dspqq668q666q663633363q66686rqq6qqqq6qeeqqeeq>3>#<dse6eq63qq66qqqqqrrq39636>6<6666qqee66ee633%->3>@,",
"t3OXX...XXXOXXXX.X@.X.XXXXXXXOXXoXXXXX@X@OOXX  XX4u>@OOXXXOO+OXXOOO+Xoo@..XXXO@X.X@O+OOOOXX..  ..XX:",
"a7<,,223<<2<<2<2<111,1,:&=,,<,::112677754<2477774td72,:,,,,21:,12,::21,;,,-,7,157442<<2,::,;<2::,,4t",
"FvcccmmmvvncmmnncchcglcstgchccccccmFTLLJmZFLEFFLTFccmmcvchcvnvnmmFlcFNggdiicEmcmNGmccccccvclcddchvvm",
"DCCHHI~^~//YPDUYDjjCxHCe5cIAI~PDH^YP//~PHY/YYDxDUPzVYPCHSxKYPY~Y/(DPPxsze60F)/PCPPPDAP~PvCCVjsCDHDHD",
"DxDPIPIHPYPPHDYUCjxCAPp%4l~IY~IPI~IPU~UKHYWZDDCjDCzxVxCCjZHKADHY^YZzCsepq%2cPPCCzDDCDPPZjCCsjjjzVHHD",
"CzzVDSDCCHVVCAACupsDHxr&4c~PPZCDDCVZHDDAVCDDVjppDCvxDVVsjxDCCDHUPDCCxppjq@4hxjjjsVCzZAAxzxVVpqxxCPzz",
"PCjvAAVCDPDZAxsjqpZUHxp&4cYYDxDHHDDAIPHVCvIDxjpsCDHPPCxsCZDDPPKPPZCCssppq%7cjsCjjVVvAHAAVjxC6pCCVDzZ",
"DxpVDDDPPYDCAsqjsC^YCCs%5mPUCAPDVHDAIDDCAPYUxpssZIUDZzxxCHPUYIPIHjVZsr6sr@4vCDxzVxCVDHVzxzDx3sxxjCzH",
"pssAPPHDUPCVVprzxCPxxCr#8GDIDPDDUHDDSxVVDDP~xjxCHSDZxxACDDP/IUYDCxHZprrjq@2cHDjZDACjZzszVDDs6jVzzVCC",
"xxVCPPDSDZxVsppsxCjzSVr$4cDIPYUUDHKVxVVDPDHPZAVVVDPxsxCDCDPAAHZxxVVprrssq@<hCCxZxVVjzjzVCDCrszsjZZVz",
"DxzDYPIAVCAjpspzZxzVCSp#2gADPIYDxCASPDDPPIIDxzpjSKjpxDPCCDVxZVxVZCjpsVze6#4cjACVxDxzzCVVDHjpjssVPZVA",
"DxsDYYHSDPDZsxxVSVCVPxq#2cVDSSDCxDIHDZAPYUSzxxVZCzxHDKDCDACKIPPPPCzjszrrqO2hCHCxzZxjzACCAVsssszzVxVC",
"CCx/(PDPPPHCjSxVDCDCHjq#4gxDAZxCSKDKPKH~YCjZDDxVKK~DCDDPDKYYDPPPCVsszpsr6O,cDzVVjxCxCDADAzxvspjVVVjZ",
"HPI/PZPIDzxxCSSSsjPDDsr%4cxDKxCZDZDPDDI/~VjDDjZHIHCjxDSASKDCjVSxxVjzVssrq@4mzxHZxVDvjxDHACVCjCDCVAAH",
"xCDPxDPPxjCZCDCxjxUDZs6@4hxADVCxSCUDDPY/PsVIDDCAHCjxAAxDYKCVxCAxVxVjpspfrO4cDHCZZVVVjVCxCzsjCCxzDPPP",
"xD/PxPHPCCDZZHCssVDAZj>#7cDPDDZZDPUPYYPPZPADDDxADHSVPDKPAsjACDCxVjrpsjpxqO5cACVDAVCVVACVCxzAvjAAPPHA",
"DPIDHHPUPDDAHKVssxZDDs3%1cPIDPDDIUYYYPDDUZsCZCxxPYCCPDACjjCADHDxxssDprjx6%7vCxxDVAAHHDAACDCAxAHDDCVs",
"PPPDDADPPDPDKHjssxZPVrr%2MYPxDZP~/YPYCAUZjxjVCxjIPxCCsVAxZHDDHPDVvCCrpVjq&5cAVVDADDHDHDCADDPZzxAHHzD",
"YPPPSAPPHPADPUHjsPCAjjp%2vPZxZPPP/PZxsPDjrsxjsVHPSjVzVDZZZAHHDSAVxCVzjCCp%4cDDCVVDDHIHDCAZACpzjVIzH(",
"DDDSCDPYYHADHDzexPDCZxr#,cDSCP/PP/PDVPDCprCppsDPPZjxzzAZDCZZDZHCVHCVCszCe%6cADspCZCPAVVjZDjVDCsVACHA",
"xjxCDDHKDDCSxjxjDUDCZCe#2lP^ZKYPDPPCVDACpDjpzCCPHssVjzCZxxCVDAZzZxzxzpsxe%5vDzpsDDZZvCVxCzCHCxszADzC",
"jsVCCSHDZHDVxZjCPDjxxs3O8cPUCDDCCDCsxxszxxejzxADxjxxzCDDzCZAHZCVzzjzxrszq#4vDzjzDPDACACACVCVjZsjvzsj",
"xjxxVCDDVCZxxCVDzjxzsp3@7nPPDxZCVAjxCzsCjpexjxZxCjsxxxCCzCZVCCxxjjjzsqpj6#4cCvjCDVVxzxVVzVVsCzqjspxj",
"ssszxVCVxjxjxxxzpjssrp6%7FDDHCCVxVxzjsjssrespjjrpppzjjjxxjzzjssjspsprrsp8#4hzzjzzjzzjjjjjzCjjqpjeszs",
"666qqeqqq6qqeq663q636q3@8mjpyrrqqeq66q6363>3666>36qqq66eq666363>>>>>36q3>@4dpq8q666836qq6qq633666363",
"@OXX@+@+XO@OXXXX..XXOXOX5d>#@XXXOOX.XX.X...XXXXXOXO@OXOOOOOXXX.X. XXOO@OOX4p>OOXXXXOOXOOoOOOXX.XX XO",
"*;;:;,:,::,:<445424,:247alw56<24,;::<2344242:,,:<:,<44<::,,::;::<<<<,;,,:<wa74<,;;:::11<,::-;;:;:;&&"
};
