/* XPM */
static char *_b0e1f9478974e6ca7fa59f81c9a026a2nhweNa75mqqMtGZ[] = {
/* columns rows colors chars-per-pixel */
"50 50 170 2 ",
"   c None",
".  c #040303",
"X  c #0A0604",
"o  c #0D0806",
"O  c #0D0C0D",
"+  c #130E0D",
"@  c #141314",
"#  c #191514",
"$  c #161718",
"%  c #181718",
"&  c #1C1B1B",
"*  c #22120D",
"=  c #2D1B16",
"-  c #221E1E",
";  c #381E16",
":  c #311F19",
">  c #331A12",
",  c #3D2017",
"<  c #35231D",
"1  c #3F231B",
"2  c #242223",
"3  c #292524",
"4  c #292827",
"5  c #292729",
"6  c #2C2B2C",
"7  c #362620",
"8  c #392721",
"9  c #3C2A24",
"0  c #342B2A",
"q  c #3A302C",
"w  c #343334",
"e  c #39373A",
"r  c #3C3B3C",
"t  c #3B3231",
"y  c #412016",
"u  c #44261C",
"i  c #46281E",
"p  c #472C23",
"a  c #43322C",
"s  c #4F332A",
"d  c #53342A",
"f  c #5A372B",
"g  c #5B392E",
"h  c #443D3B",
"j  c #5F3B31",
"k  c #633D32",
"l  c #6D421E",
"z  c #6E4624",
"x  c #6F4927",
"c  c #6D462E",
"v  c #654136",
"b  c #684235",
"n  c #67453A",
"m  c #6B463A",
"M  c #6F493D",
"N  c #724B33",
"B  c #734B3D",
"V  c #7B533E",
"C  c #413E41",
"Z  c #444343",
"A  c #484747",
"S  c #4A4947",
"D  c #494749",
"F  c #4C4C4C",
"G  c #4D4F50",
"H  c #554F51",
"J  c #4F5152",
"K  c #545354",
"L  c #585757",
"P  c #565759",
"I  c #5A575A",
"U  c #57595D",
"Y  c #5C5B5C",
"T  c #654E49",
"R  c #764E42",
"E  c #794F42",
"W  c #66504B",
"Q  c #775044",
"!  c #7A5144",
"~  c #7D5449",
"^  c #77584F",
"/  c #7F594D",
"(  c #645351",
")  c #615C5D",
"_  c #7B5B52",
"`  c #745A54",
"'  c #7E6057",
"]  c #7E625C",
"[  c #7F6B5A",
"{  c #5E5E61",
"}  c #625F62",
"|  c #646264",
" . c #676669",
".. c #696769",
"X. c #666869",
"o. c #6C6B6C",
"O. c #6C6C71",
"+. c #716F71",
"@. c #6F7071",
"#. c #747474",
"$. c #7A797A",
"%. c #855A36",
"&. c #865B38",
"*. c #805643",
"=. c #855B45",
"-. c #81574B",
";. c #82584D",
":. c #8A5D4E",
">. c #845D52",
",. c #8A5E50",
"<. c #926641",
"1. c #92664E",
"2. c #876054",
"3. c #8E6355",
"4. c #80655F",
"5. c #8E6358",
"6. c #8B6C5F",
"7. c #906557",
"8. c #946856",
"9. c #986B52",
"0. c #926659",
"q. c #95695C",
"w. c #996B5D",
"e. c #A2734E",
"r. c #A27350",
"t. c #A17359",
"y. c #826862",
"u. c #966C60",
"i. c #9C6F62",
"p. c #83726F",
"a. c #9E7163",
"s. c #94746A",
"d. c #867977",
"f. c #807E7F",
"g. c #847371",
"h. c #967C76",
"j. c #A27465",
"k. c #AB7666",
"l. c #AD7867",
"z. c #A57669",
"x. c #A87768",
"c. c #A7786A",
"v. c #AB7A6B",
"b. c #B27C6B",
"n. c #B7816F",
"m. c #B8816F",
"M. c #B88270",
"N. c #817F81",
"B. c #7E8081",
"V. c #848385",
"C. c #87898B",
"Z. c #8C8B8C",
"A. c #8E8F91",
"S. c #918F91",
"D. c #939394",
"F. c #989897",
"G. c #97979A",
"H. c #989798",
"J. c #979898",
"K. c #9C9C9D",
"L. c #A58B85",
"P. c #A39FA3",
"I. c #A1A1A3",
"U. c #A8A7A8",
"Y. c #ACABAC",
"T. c #ADAFB1",
"R. c #AFB0B0",
"E. c #B5B4B5",
"W. c #B8B7B8",
"Q. c #BBBABA",
/* pixels */
"                                                                                                    ",
"                                                                                                    ",
"                                                - O   5                                             ",
"                                        6 | % V.$.Z Z.D...% D                                       ",
"                                    . Z Y.K.w & 6 % 3 3 6 F P.r &                                   ",
"                                  +.S.Z | 2 : v v f n m p 3 r e Y | $                               ",
"                                D U.{ @ * f w.z.w.-.x.z.w.k d + #.#.C O                             ",
"                              N.G 4 = R 7.-.j.i.3.E k.j.3.~ x.-.; - 2 N.|                           ",
"                            K #.Z > w.z.5.~ ! 1.0.E l.j.7.E x.0.-.Q h O.D #                         ",
"                          w E.o.= E 0.a.3.~ &.<.0.Q l.j.3.*.b.5.Q b.b + O.L                         ",
"                          K C F i E 0.k.3./ V <.q.Q l.j.3.~ x.7.E x.m t D.) O                       ",
"                        H Q.X.# ,.Q 0.l.3.~ 3.9.0.Q j.i.0.E j.7.E j.~ 1 $ F K                       ",
"                        | o.6 d x.R 0.b.3.Q z.a.7.Q a.j.0.Q z.7.E z.-.V t $.L O                     ",
"                        | o.2 M c.E 0.l.7.Q j.a.7.! j.3.,.Q j.7.~ 7.B 7.9 L L 6                     ",
"                        W.U.6 v x.E 0.j.7.Q a.a.7.! z.B &.~ j.3.~ *.x 3.9 R.I.w                     ",
"                      O F A % m c.! 7.j.7.! j.a.3.! z.V &.~ j.3.~ -.x 5.: J A %                     ",
"                      $ V.F.w v v.Q 7.j.7.Q l.j.7.E z.V &.~ j.3.~ &.k 8.a F.F.e                     ",
"                      O K K # m c.Q 5.j.3.! l.j.7.E z.V &.~ j.3.~ 6.2.d.Z | G &                     ",
"                      & D.K.w v v.Q 7.j.7.! l.j.3.! z.V &.~ j.0.B ..O.| r | X.Z                     ",
"                      $ @.n.- n w.B 0.j.7.! l.j.5.Q z.V %.~ j.7.E ) K Y w C @.2                     ",
"                      @ Y Y 2 M =.z 5.a.q.Q l.j.7.Q x.! =.~ j.5.Q a.Q ^ 0 | Y 4                     ",
"                      & R.W.w b =.z u.t.3.Q x.a.7.Q j.~ :.Q j.0.Q x.! 7.9 Y.R.e                     ",
"                      O F A @ M :.c q.e.3.! a.a.7.Q j.w.7.Q j.3.! j.! 7.< G G #                     ",
"                      & r $.F j c.Q 5.r.1.! a.a.8.! a.j.7.Q j.0.! l.! 2.9 A.K.F                     ",
"                      O #.R.h v v.! 5.r.8.Q j.w.0.Q j.a.7.! j.7.E b.! ,.< I.Y.Z                     ",
"                      O L F @ n c.Q 7.j.7.Q a.a.7.Q j.w.7.! j.7.E b.-.3.< G C $                     ",
"                      $ V.K.Z v v.R 0.j.7.! a.a.7.Q j.a.0.Q j.7.E b.-.,.a Y #.Z                     ",
"                      & D.C.0 v c.>.2.u.3.Q a.a.7.Q z.l.7.Q j.7.E b.! :.9 A.| 6                     ",
"                      @ h w & n c.h.p.y.( W a.a.7.! j.l.3.Q z.7.! z.! 3.< F e &                     ",
"                      % D.K.w b c.^ L.k.q.' j.a.7.! j.k.0.Q j.7.E z.! ,.8 G.H.r                     ",
"                      @ $.| & n x.Q ` q.' ^ a.a.7.! z.k.3.! z.7.! z.Q 3.7 B.| &                     ",
"                      O | | 4 n c.Q 3.] _ ! a.a.7.Q j.k.3.! j.3.! z.Q 3.< Y { 6                     ",
"                      - Y.W.C k v.Q 0.z.7.Q a.a.0.Q z.k.3.Q w.c ! z.Q ,.8 K.Y.A                     ",
"                      $ A.V.& M m.R 3.z.7.! j.i.7.Q j.l.3.~ i.z &.z.~ 3.7 J.B.2                     ",
"                      O F e @ M m.E 8.7.3.Q j.a.7.! j.j.3.~ w.x ! z.R 3.< J r %                     ",
"                      - L Y A b m.E q.! %.~ a.i.7.! j.w.7.~ u.z &.z.Q ,.9 D.F.G                     ",
"                      # Y H.r b m.Q q.! %.;.*.1.0.! j.i.3.~ q.c Q z.E :.8 P.Y.A                     ",
"                      O o.L # B v.Q q.&.%.;.V <.q.! j.a.7.! a.~ ~ c./ s.h +.Y &                     ",
"                      @ Y Y 4 v c.Q q.*.&.~ 3.q.0.Q j.i.7.! j.0.R p.$.+.e } } 6                     ",
"                      2 I.W.K k v.Q q.! &.~ j.j.7.E j.i.7.! j.7.R Y U { r K.V.A                     ",
"                      # V.R.A k c.Q q.*.&.~ j.w.3.! j.a.7.! z.3.Q ] T ( r L | e                     ",
"                      % Z.C.6 b v.Q q.V &.~ a.a.7.! j.k.3.Q z.3.Q k.~ 3.7 X.} 6                     ",
"                      O G r # v 9.V 0.3.2.~ j.a.7.Q j.l.7.Q z.3.! z.Q 3.< K r &                     ",
"                      % Z.U.D d %.V 5.c.7.Q a.i.7.! z.k.3.! z.7.~ 7.N 3.9 A.D.A                     ",
"                      # Z.K.e j 9.! 7.a.3.! a.a.7.! j.l.3.Q z.3.~ V z 7.7 J.V.5                     ",
"                      $ S.#.- M c.E 7.j.7.! j.a.3.Q j.k.0.! j.3.Q q.B 7.8 A.| 5                     ",
"                      + F r & f c.! 3.j.3.! a.j.8.! j.a.3.Q a.3.E x.Q 3.< F r &                     ",
"                        Z.V.w y -.~ w.v.w.! v.2.B v ,.v.w.-.v.q.-.:.f B : C.D.r                     ",
"                      % o.K 2 ; u d k n v j n u , , u v v g n v g i y i = $...2                     ",
"                        . O X X o . . . . * . X o X X . . * . o * . X X . @ X .                     "
};
