/* XPM */
static char *_10fb85dc88a4db8e40f23d03382a29ehQUyrqdecoL0DDbI[] = {
/* columns rows colors chars-per-pixel */
"50 50 117 2 ",
"   c None",
".  c #000004",
"X  c #00020C",
"o  c #000513",
"O  c #000A15",
"+  c #010719",
"@  c #010C1B",
"#  c #00111D",
"$  c #010F22",
"%  c #010F29",
"&  c #011223",
"*  c #011827",
"=  c #01132B",
"-  c #01192B",
";  c #011532",
":  c #011A34",
">  c #01153B",
",  c #011B3C",
"<  c #042333",
"1  c #04233A",
"2  c #011641",
"3  c #021A43",
"4  c #021748",
"5  c #021B4B",
"6  c #021E52",
"7  c #032444",
"8  c #052B44",
"9  c #03234D",
"0  c #052B4B",
"q  c #06314D",
"w  c #09354D",
"e  c #022255",
"r  c #032A54",
"t  c #02245B",
"y  c #042B5D",
"u  c #063354",
"i  c #093A55",
"p  c #06345C",
"a  c #083F5F",
"s  c #022660",
"d  c #032B62",
"f  c #032E6B",
"g  c #053363",
"h  c #073A63",
"j  c #04326C",
"k  c #06396C",
"l  c #083D6B",
"z  c #053573",
"x  c #053A75",
"c  c #083F74",
"v  c #043D7A",
"b  c #0D435A",
"n  c #0B4565",
"m  c #0F4C66",
"M  c #074468",
"N  c #09426C",
"B  c #074472",
"V  c #094272",
"C  c #0B4D75",
"Z  c #05437E",
"A  c #08437D",
"S  c #0A4B7C",
"D  c #064482",
"F  c #084080",
"G  c #054985",
"H  c #064C8B",
"J  c #0A4B8B",
"K  c #0C5687",
"L  c #0C5B86",
"P  c #05518E",
"I  c #09548D",
"U  c #0E5C8C",
"Y  c #064F92",
"T  c #084E90",
"R  c #065493",
"E  c #095495",
"W  c #075896",
"Q  c #095994",
"!  c #095799",
"~  c #065E9D",
"^  c #095C9B",
"/  c #0C6397",
"(  c #0C649C",
")  c #0C6A9E",
"_  c #0A5DA1",
"`  c #0C65A4",
"'  c #0C69A5",
"]  c #0C6CAD",
"[  c #0D71AC",
"{  c #1075A6",
"}  c #1075AB",
"|  c #1279AB",
" . c #0F6DB0",
".. c #0C74B1",
"X. c #0E7CB9",
"o. c #1175B5",
"O. c #127DB6",
"+. c #107DBB",
"@. c #117DC0",
"#. c #0F81BF",
"$. c #1184BC",
"%. c #138DBF",
"&. c #1184C2",
"*. c #138BC4",
"=. c #138CCC",
"-. c #1695C5",
";. c #1595CB",
":. c #159ACE",
">. c #1499D4",
",. c #169EDC",
"<. c #17A4D6",
"1. c #18ACE3",
"2. c #1BB7E5",
"3. c #18B6EB",
"4. c #1CC2F1",
"5. c #1DCCFE",
"6. c #1ED1F8",
/* pixels */
"                                                                                                    ",
"                                                                                                    ",
"                                                                                                    ",
"                                                                                                    ",
"                                                                                                    ",
"                                                                                                    ",
"                                                                                                    ",
"                                                                                                    ",
"                                          J J f ` _ 6 s T                                           ",
"                                    +. ._  ._ T v D z 6 f _ &.&.                                    ",
"                                &.=.=.=.@.,.@.o. .f 6 s 6 f E E *.+.                                ",
"                              Y E _ J J ` &.:.=.*.` z 6 s 4 6 z ! +.H                               ",
"                            T z t 6 4 > > t E  .-.O.J e s f 4 6 f ! ^ E                             ",
"                          e 4 4 5 6 6 6 > ; 6 k c F d 2 4 x y 4 6 j F J j                           ",
"                        s 6 t 6 e 9 4 > = = ; g g 4 ; = % 5 6 4 2 4 6 z y f                         ",
"                      s e 6 4 6 6 6 3 > ; % % ; > = = $ % % , 4 4 > 4 t 6 t j                       ",
"                      s 5 5 d e 9 y h l h 8 = = $ + + @ % & ; 3 6 > 6 5 6 6 f                       ",
"                    t 6 6 x A A U L C n a w ; $ @ % @ @ + & ; ; 3 > 2 3 e 5 6 6                     ",
"                    6 6 v ^ S l g q 0 8 1 - $ @ @ @ * @ o @ & > ; > ; 2 t 5 6 d                     ",
"                  s v F x j t 2 ; = - % + o X X X o O # @ + + - = = ; > e 6 d z F                   ",
"                  J F t e y 7 $ # $ + X X X X X X X X o @ + + = : $ - ; t x x z F                   ",
"                  f 4 4 5 9 $ $ % o o o o o X . . . X X O O o & , @ % % d v f s D                   ",
"                  e 5 > 5 : : ; o o O o X X . . . . . X X O o @ : @ % % g v t f E                   ",
"                s s e t t 9 1 @ + O o . . . . . . . . . . o o + - @ $ = j x f v Q ~                 ",
"                t s j j y 3 # + @ o o . . . . . . . . . . X o @ & # & : j c x G [ W                 ",
"                f v x f 9 @ @ + o O . . . . . . . . . . . X o # # & @ 7 k A A ` :.D                 ",
"                t v z y ; & $ & @ o X . X . . . . . . . . X o # & # & y d c ` >.] d                 ",
"                  j t e : = ; * @ o X O X . . . . . . . X X o O & @ , 9 t %.4.&.j                   ",
"                  J 6 t 3 : : $ o o X O . . . . . . . . o o o # & ; : > { 5.;.j e                   ",
"                  ! 6 t 3 , ; # + o o O O X X . . . . X X X O # - - % S -.O.d e f                   ",
"                  J t 9 , 4 ; $ + + @ O O O o X X . . X X o # - & % h ( ( c 6 t d                   ",
"                    d 6 , 3 3 * @ # O O O O O o O O o O # * # @ - p l g e e d t                     ",
"                    t 5 4 4 9 , * & # * & + # # O # O O # # - w C S r 2 e d t f                     ",
"                      e 5 e e r 9 7 - @ < < * < < < < < 1 i m N h e 5 e e d v                       ",
"                      d e e j k V N e - & 1 7 8 w b m m n p 9 , ; 2 j Z D W [                       ",
"                        d e Z Q ( U M p , : , , : 8 w i 0 5 , r B ) [ ` ~ X.                        ",
"                          d I ] -.| K l y p y 7 , , , 3 r k K } $.O.' W (                           ",
"                            Q Q %.:.*./ d p y r r t y r t x G I D x v Z                             ",
"                              H W #.<.2.) t r t t g k k c Z Z Q R G Z                               ",
"                                W W ' :.4.[ d t t e t G I ( W P P G                                 ",
"                                    ` ..>.1.&.P G I I ' +.] ` R                                     ",
"                                          3.5.>.' ] =.#...                                          ",
"                                                                                                    ",
"                                                                                                    ",
"                                                                                                    ",
"                                                                                                    ",
"                                                                                                    ",
"                                                                                                    ",
"                                                                                                    ",
"                                                                                                    "
};
