/* XPM */
static char *c81131180bcf4218bead21ca12bd3b9bmd3YNMBpNvHfnoNy[] = {
/* columns rows colors chars-per-pixel */
"50 50 206 2 ",
"   c None",
".  c #020202",
"X  c #04050B",
"o  c #08070A",
"O  c #0A0A0C",
"+  c #080706",
"@  c #0D0D13",
"#  c #060918",
"$  c #121115",
"%  c #15141B",
"&  c #19161C",
"*  c #1B1819",
"=  c #1A130D",
"-  c #251C16",
";  c #23190F",
":  c #2D2519",
">  c #35261C",
",  c #161722",
"<  c #1C1A23",
"1  c #1B1C2B",
"2  c #171825",
"3  c #1C1D32",
"4  c #211E2B",
"5  c #251E27",
"6  c #1E2239",
"7  c #22212D",
"8  c #2B2325",
"9  c #352D2A",
"0  c #3A2C22",
"q  c #3C3424",
"w  c #252333",
"e  c #2B2A35",
"r  c #292739",
"t  c #2B2A3C",
"y  c #272737",
"u  c #393638",
"i  c #352E32",
"p  c #43301C",
"a  c #4A301E",
"s  c #643D1F",
"d  c #473B28",
"f  c #453D3C",
"g  c #413D33",
"h  c #563C32",
"j  c #452F25",
"k  c #623B20",
"l  c #48412E",
"z  c #4B453A",
"x  c #594D37",
"c  c #5A4C34",
"v  c #63462C",
"b  c #664D35",
"n  c #685A3D",
"m  c #77563B",
"M  c #744E39",
"N  c #2E2D42",
"B  c #262A43",
"V  c #302E42",
"C  c #333144",
"Z  c #36344B",
"A  c #39374E",
"S  c #3C3A4B",
"D  c #3A3746",
"F  c #3C3B53",
"G  c #3A3957",
"H  c #413F4D",
"J  c #403E55",
"K  c #403F59",
"L  c #3F415A",
"P  c #454354",
"I  c #43425D",
"U  c #4C495C",
"Y  c #4A4A57",
"T  c #554E51",
"R  c #575759",
"E  c #4E4D50",
"W  c #745D46",
"Q  c #675E55",
"!  c #6F6044",
"~  c #77654A",
"^  c #7D6B4D",
"/  c #796445",
"(  c #7A6E51",
")  c #454462",
"_  c #494766",
"`  c #4A4965",
"'  c #4C4B6B",
"]  c #41446A",
"[  c #514F63",
"{  c #545268",
"}  c #504F71",
"|  c #535274",
" . c #565579",
".. c #58577C",
"X. c #59587E",
"o. c #5B5970",
"O. c #676869",
"+. c #64627A",
"@. c #85583F",
"#. c #8A5D42",
"$. c #956748",
"%. c #8A7755",
"&. c #957953",
"*. c #8E724B",
"=. c #A67954",
"-. c #B37654",
";. c #877A6B",
":. c #C17D57",
">. c #97825D",
",. c #B4895C",
"<. c #A7815B",
"1. c #998761",
"2. c #9F8A63",
"3. c #848078",
"4. c #A78C63",
"5. c #B78D65",
"6. c #A89368",
"7. c #B6986B",
"8. c #B99A7F",
"9. c #BCA576",
"0. c #C38D5E",
"q. c #C79766",
"w. c #C09D74",
"e. c #D99666",
"r. c #E6956B",
"t. c #EA996D",
"y. c #E7996E",
"u. c #EC9F72",
"i. c #F19F72",
"p. c #D7A06F",
"a. c #C6A57B",
"s. c #D9A776",
"d. c #D0B17E",
"f. c #C5A06C",
"g. c #E9A976",
"h. c #F4A375",
"j. c #F7A878",
"k. c #F6B57B",
"l. c #E9B175",
"z. c #5D5C83",
"x. c #605F87",
"c. c #605F88",
"v. c #63628B",
"b. c #6C6C8B",
"n. c #716F8B",
"m. c #767686",
"M. c #676691",
"N. c #686792",
"B. c #6A6995",
"V. c #6E6D9A",
"C. c #706F9E",
"Z. c #6E7095",
"A. c #71709D",
"S. c #7474A3",
"D. c #7978A6",
"F. c #7B7AAC",
"G. c #7977A4",
"H. c #7E7DB3",
"J. c #807EAB",
"K. c #888784",
"L. c #979799",
"P. c #B1A894",
"I. c #8482A7",
"U. c #8585BC",
"Y. c #8988B4",
"T. c #9191BD",
"R. c #A2A3A5",
"E. c #B5B2AE",
"W. c #D6B882",
"Q. c #E3BC85",
"!. c #FABD86",
"~. c #FFBF88",
"^. c #FAB582",
"/. c #C5B4A3",
"(. c #DFC189",
"). c #EBC48B",
"_. c #E0C58C",
"`. c #FDC38B",
"'. c #FECA8E",
"]. c #F8C488",
"[. c #EDCE92",
"{. c #FCCC91",
"}. c #F5CC92",
"|. c #EED193",
" X c #F5D295",
".X c #FCD396",
"XX c #FDD799",
"oX c #FDDA9B",
"OX c #FBD995",
"+X c #FFE598",
"@X c #C1C0BF",
"#X c #D2C9B8",
"$X c #FFE3A2",
"%X c #FFE9A6",
"&X c #FFECA9",
"*X c #FFF5AB",
"=X c #8A8AC3",
"-X c #C9CBCC",
";X c #D0CFCE",
":X c #DADDE1",
">X c #E5E4E3",
",X c #EEEDEC",
"<X c #F0EFEF",
"1X c #ECEFF4",
"2X c #FEFEFE",
"3X c #F3F6F9",
/* pixels */
"                                                                                                    ",
"                                        , 7 N C N t 7                                               ",
"                                  w F | v.B.A.S.S.S.A.v.| A %                                       ",
"                              1 ) z.B.B.B.B.A.G.J.Y.T.=XU.H.C._ &                                   ",
"                            V ..z.z.z.x.M.V.V.A.J.F.Y.T.T.Y.H.=XC.A                                 ",
"                          V .. . .X.X.z.x.v.V.B.V.S.C.S.D.J.F.D.H.=X'                               ",
"                        t | } }  . ...z.z.x.v.M.B.B.C.V.C.C.S.F.H.F.=X'                             ",
"                      & _ ' _ } | |  ...X.x.z.v.v.M.N.V.V.S.S.S.S.D.H.=XF                           ",
"                      C _ _ _ ' ' } |  ...X.z.x.v.v.B.v.V.v.A.A.V.M.D.H.B.,                         ",
"                    % F K I _ _ _ } } |  .....| c.z.z.x.z. .v.X.B.' M.M.V.F                         ",
"                    w F J K I ) _ ' } } _ } X.' ) | ) .._ ' I ' ' F G _  .'                         ",
"                    t F G K K I K _ K ) _ J _ _ Z F F I F J F A Z F A A Z )                         ",
"                    N A A F F K K G I Z A Z Z Z Z B 6 3 3 3 6 N A w 1 1 N N @                       ",
"                  @ t Z Z A G F K Z Z Z V Z B 3 5 h #.&.-.=.W 8 # m s.$.& 7 +                       ",
"                  @ t V C Z Z N A V r t t 2 0 $.g.XX$X$X$X$XoXQ./  X%X%X9.o                         ",
"                  O y N V C Z t r t r w < #.j.oX$XoXoXoXoXXXXX$X$XoXoXoX%Xj                         ",
"                  o w t N N N t 4 w 1 - :.~.oXoXoXoXoXoXoXoXoXoXoXoXoXoXoX~                         ",
"                    1 r r V w 7 5 1 $ :.^.XXoXoXXXXXoXoXoXoXoXoXoXoXoXoXoX%.                        ",
"                    & y w r r & 2 X #.h.}..X X$X%X%X$XoXXXoXoXoXoX$X X X&X(                         ",
"                    O 4 w w < & # - r.^.$X[.9.2.%.6.W.oX%X$XoXoX%XW.x 2.>.l                         ",
"                      % 7 w < % X M j.{. XQ.).W.a.>.( ~ 6.|.oXoX).c : : %.                          ",
"                      o , 4 7 % X -.h..XQ.&.f u 0 l n 1.6.(.oX{.5.; @ 3.6.                          ",
"                        . # , , & e.i.}.{.p.R.;XR.m.E O g 7.}.`.m O.O.K.u                           ",
"                      l 7.&.@ @ > t.u.~.~.0.E.>X>X,X<Xu E ;.!.g.;.3XO.R                             ",
"                      &.'.^.=.X j h.r.!.!.e.E.2X2X2X;X+ O.#X'.k./.2X>XL.                            ",
"                      b {. X`.( p h.r.j.!.k.5.-X1X2X1XE -XK.v q./.<X:XQ                             ",
"                        W.%X}.{.4.i.t.t.!.!.^.q.8./.#XP.z < P 9 =.a.w.&.                            ",
"                        0 [.*X%.z ~.r.r.g.'.{.oX'.f.! 9 S o.+.b.P W 4.(                             ",
"                      . 2 E ( C X n ^.h.i.~._.&.z r C U [ ` [ n.I.b.{ .                             ",
"                      $ ' ] Z 7 +   x q.$.h 5 2 t D H P Y Y [ +.m.I.P                               ",
"                    $ _ ) N < .       . . @ 4 e e u D S L P U +.n.L                                 ",
"                  . 1 3 @ .               + o @ < 4 7 u D S P P 7                                   ",
"                                            o $ O O 7 o + @ O                                       ",
"                                          7.<.2 I C Y S t                                           ",
"                                        4.oX*.] C.V.7 v.M.                                          ",
"                                      l ).s., G X.I < Z ) q                                         ",
"                                      7.%X4.% D 4 + < P f q.                                        ",
"                                      x %.q y S w 7 r F U $.; *.&.                                  ",
"                                    > c m / q 8 9 f f T 9 ; M q.q.                                  ",
"                                    ,.+XOX+Xv a k s ! W v p 0.,.:                                   ",
"                                    m ].l.0.> . . . O O .   *.d                                     ",
"                                      v k :   . . . . .                                             ",
"                                              & &   * , %                                           ",
"                                            O $ * 7 < $ < e                                         ",
"                                            . . @ [ U . S { e                                       ",
"                                            O + O $ % O $ % *                                       ",
"                                                                                                    ",
"                                                                                                    ",
"                                                                                                    ",
"                                                                                                    "
};
